<svg xmlns="http://www.w3.org/2000/svg" width="20" height="20" viewBox="0 0 20 20">
<path fill="#000000" stroke="#ff0000" stroke-width="0.3" stroke-dasharray="none" d="M 217 648.245 649 225 648 235 649.453 516 343 649 430 595.458 478 455 503 458 491.412 370 458 440 441 398.411 369 412 369 411 369.415 365 411 367 412 367.488 231 462 331 488 281.472 165 488 208 483 186.243 43 434 86 338 43.63 104 178 43 112 62.0 233 20 140 0 186.73 365 0 283 24 331 L 77 369 L 72 374.29 476 42 406 29 441.217 648 29 557 103 635 M 258 605.242 606 253 605 247 606.157 552 198 606 157 580.160 541 157 548 159 544.319 413 176 503 242 452 L 337 403 L 338 406.359 476 352 428 359 452.258 605 359 537 318 595 M 138 326.130 330 134 328 130 330.130 330 130 330 130 330.107 305 127 330 112 313.84 231 91 281 84 256.243 86 84 156 151 86.249 87 245 86 246 87.347 156 303 88 347 120.344 172 347 162 345 167.156 319 325 227 257 281.138 326 151 322 144 324 M 243 -1 L 245 -1 L 242 -1 L 243 -1 M 243 673 L 245 673 L 242 673 L 243 673 "></path>
</svg>